<svg id="Iconly_Bold_Setting" data-name="Iconly/Bold/Setting" xmlns="http://www.w3.org/2000/svg" width="18.996" height="20" viewBox="0 0 18.996 20">
  <g id="Setting" transform="translate(0 0)">
    <path id="Setting-2" data-name="Setting" d="M10.2,20H8.806A2.067,2.067,0,0,1,6.68,17.95,1.9,1.9,0,0,0,4.8,16.13a1.58,1.58,0,0,0-.9.23,2.162,2.162,0,0,1-1.083.3A2.123,2.123,0,0,1,1,15.62l-.7-1.2a2,2,0,0,1-.021-2.05,2.105,2.105,0,0,1,.818-.789,1.656,1.656,0,0,0,.644-.64,1.783,1.783,0,0,0,.19-1.365A1.837,1.837,0,0,0,1.069,8.44,2.044,2.044,0,0,1,.313,5.61L1,4.43a2.123,2.123,0,0,1,2.882-.76,1.9,1.9,0,0,0,.9.224A1.96,1.96,0,0,0,6.445,2.98,1.545,1.545,0,0,0,6.68,2.1,1.788,1.788,0,0,1,6.966,1.04,2.2,2.2,0,0,1,8.775,0h1.441a2.153,2.153,0,0,1,1.819,1.04A1.781,1.781,0,0,1,12.31,2.1a1.538,1.538,0,0,0,.236.88,1.962,1.962,0,0,0,1.671.914,1.925,1.925,0,0,0,.9-.224,2.111,2.111,0,0,1,2.872.76l.685,1.18a2.028,2.028,0,0,1-.757,2.831,1.828,1.828,0,0,0-.853,1.137,1.772,1.772,0,0,0,.2,1.363,1.558,1.558,0,0,0,.634.64,2.31,2.31,0,0,1,.827.789,2.029,2.029,0,0,1-.02,2.05l-.715,1.2a2.1,2.1,0,0,1-2.893.74,1.621,1.621,0,0,0-.9-.23,1.9,1.9,0,0,0-1.891,1.82A2.061,2.061,0,0,1,10.2,20ZM9.51,7.18a2.826,2.826,0,1,0,0,5.65,2.825,2.825,0,1,0,0-5.65Z" fill="#fff"/>
  </g>
</svg>
